<svg width="1000" height="1000" viewBox="0 0 1000 1000" fill="none" xmlns="http://www.w3.org/2000/svg">
<rect width="1000" height="1000" rx="236" fill="#111113"/>
<path fill-rule="evenodd" clip-rule="evenodd" d="M353.596 250C330.899 250 312.5 268.399 312.5 291.096V708.904C312.5 731.601 330.899 750 353.596 750C376.293 750 394.692 731.601 394.692 708.904V592.531L675.341 319.368C683.056 311.86 687.391 301.538 687.393 290.919C687.397 269.054 669.185 250.997 646.721 251.001C635.951 251.003 625.622 255.164 618 262.57L394.692 479.552V291.096C394.692 268.399 376.293 250 353.596 250Z" fill="#FAFAFA"/>
<path d="M435.852 625.641C435.852 615.664 439.992 606.135 447.284 599.326L630.52 428.258C652.193 408.024 687.566 423.392 687.566 453.042V453.042C687.566 462.278 683.798 471.115 677.133 477.509L516.398 631.722C510.886 637.01 507.77 644.318 507.77 651.957V651.957C507.77 667.445 520.325 680 535.813 680H652.566C671.896 680 687.566 695.67 687.566 715V715C687.566 734.33 671.895 750 652.566 750H471.852C451.969 750 435.852 733.882 435.852 714V625.641Z" fill="#FAFAFA"/>
<rect x="615.539" y="569.988" width="71.9183" height="70" rx="35" fill="#FAFAFA"/>
</svg>
